/* XPM */
static char * main_xpm[] = {
"32 32 314 2",
"  	c None",
". 	c #622D98",
"+ 	c #672F9E",
"@ 	c #6F33AC",
"# 	c #6C32A7",
"$ 	c #6D32A8",
"% 	c #7536B4",
"& 	c #7134AF",
"* 	c #6F33AB",
"= 	c #562785",
"- 	c #622D97",
"; 	c #7736B7",
"> 	c #7C39C0",
", 	c #813BC7",
"' 	c #853DCD",
") 	c #883ED1",
"! 	c #893FD3",
"~ 	c #8A3FD5",
"{ 	c #893FD4",
"] 	c #873ED0",
"^ 	c #6F33AA",
"/ 	c #4B2274",
"( 	c #5D2B8F",
"_ 	c #6A31A4",
": 	c #7335B2",
"< 	c #7B38BD",
"[ 	c #813BC6",
"} 	c #863DCE",
"| 	c #8A3FD4",
"1 	c #8D41D9",
"2 	c #9042DE",
"3 	c #9243E1",
"4 	c #9344E2",
"5 	c #9344E3",
"6 	c #9343E2",
"7 	c #9143DF",
"8 	c #4E2478",
"9 	c #5F2C93",
"0 	c #6B31A5",
"a 	c #7435B2",
"b 	c #7B39BE",
"c 	c #873ECF",
"d 	c #8B40D7",
"e 	c #8F42DD",
"f 	c #9545E6",
"g 	c #9746E9",
"h 	c #9946EB",
"i 	c #9947EC",
"j 	c #9745E8",
"k 	c #7837BA",
"l 	c #6930A1",
"m 	c #7234AF",
"n 	c #7A38BB",
"o 	c #803BC5",
"p 	c #863ECE",
"q 	c #8B40D6",
"r 	c #9645E7",
"s 	c #9946EC",
"t 	c #9B47EF",
"u 	c #9D48F1",
"v 	c #9E48F3",
"w 	c #9E49F3",
"x 	c #9C48F1",
"y 	c #9A47ED",
"z 	c #45206B",
"A 	c #582888",
"B 	c #652E9B",
"C 	c #6E33AA",
"D 	c #7636B6",
"E 	c #7D3AC1",
"F 	c #843CCB",
"G 	c #8E41DA",
"H 	c #9F49F5",
"I 	c #A04AF7",
"J 	c #A14AF8",
"K 	c #9F49F4",
"L 	c #9C48F0",
"M 	c #9042DF",
"N 	c #7F3AC3",
"O 	c #3D1C5E",
"P 	c #51257D",
"Q 	c #5F2B92",
"R 	c #6930A2",
"S 	c #7938BB",
"T 	c #9042DD",
"U 	c #9444E4",
"V 	c #9A47EE",
"W 	c #9D48F2",
"X 	c #A24BFA",
"Y 	c #A34BFB",
"Z 	c #A14AF9",
"` 	c #9745E9",
" .	c #8F42DC",
"..	c #7837B9",
"+.	c #32174E",
"@.	c #48216F",
"#.	c #572886",
"$.	c #632D98",
"%.	c #6C32A6",
"&.	c #7435B3",
"*.	c #823CC8",
"=.	c #8C40D8",
"-.	c #9544E5",
";.	c #9846EB",
">.	c #A34BFC",
",.	c #A44CFD",
"'.	c #A54CFD",
").	c #A24AF9",
"!.	c #9B47EE",
"~.	c #8B40D5",
"{.	c #3A1B5A",
"].	c #4E2477",
"^.	c #5A298B",
"/.	c #6E32A9",
"(.	c #7536B5",
"_.	c #7C39BF",
":.	c #823CC9",
"<.	c #9143E0",
"[.	c #9E49F4",
"}.	c #A14AF7",
"|.	c #A34BFA",
"1.	c #A44BFC",
"2.	c #A54CFE",
"3.	c #9846EA",
"4.	c #9142DF",
"5.	c #7E3AC3",
"6.	c #2D1546",
"7.	c #411E65",
"8.	c #51257C",
"9.	c #5C2A8E",
"0.	c #662F9D",
"a.	c #7D39C0",
"b.	c #833CC9",
"c.	c #883ED2",
"d.	c #9C48EF",
"e.	c #A24BF8",
"f.	c #A54DFC",
"g.	c #A54DFE",
"h.	c #9444E3",
"i.	c #6A30A3",
"j.	c #31164B",
"k.	c #451F6A",
"l.	c #52267F",
"m.	c #5D2B90",
"n.	c #662F9E",
"o.	c #A04BF5",
"p.	c #A752FD",
"q.	c #AB57FF",
"r.	c #AA56FF",
"s.	c #A750FF",
"t.	c #A44BFD",
"u.	c #7737B8",
"v.	c #351851",
"w.	c #46206C",
"x.	c #53267F",
"y.	c #863ECF",
"z.	c #A34EF7",
"A.	c #AE5DFF",
"B.	c #B469FF",
"C.	c #B367FF",
"D.	c #AC59FF",
"E.	c #A64FFF",
"F.	c #A44CFC",
"G.	c #9645E6",
"H.	c #8E41DB",
"I.	c #27123C",
"J.	c #361954",
"K.	c #652E9C",
"L.	c #7A38BC",
"M.	c #9243E0",
"N.	c #9545E5",
"O.	c #9947EB",
"P.	c #A34FF6",
"Q.	c #B061FF",
"R.	c #B872FF",
"S.	c #B871FF",
"T.	c #AF60FF",
"U.	c #A751FE",
"V.	c #9F49F6",
"W.	c #8E41DC",
"X.	c #843DCB",
"Y.	c #28123E",
"Z.	c #5B2A8C",
"`.	c #642E99",
" +	c #7234B0",
".+	c #7E3AC2",
"++	c #833CCA",
"@+	c #8C40D7",
"#+	c #9746E8",
"$+	c #9E4BF0",
"%+	c #AB5AFD",
"&+	c #B368FF",
"*+	c #AD5CFF",
"=+	c #A54FFC",
"-+	c #6C31A6",
";+	c #27123D",
">+	c #351852",
",+	c #441F68",
"'+	c #4F247A",
")+	c #592989",
"!+	c #612D96",
"~+	c #7033AC",
"{+	c #7C39BE",
"]+	c #8D41DA",
"^+	c #9847E9",
"/+	c #9F4DF1",
"(+	c #A754FA",
"_+	c #A956FC",
":+	c #A551FA",
"<+	c #9645E8",
"[+	c #29133F",
"}+	c #33174F",
"|+	c #4D2376",
"1+	c #562885",
"2+	c #7938BA",
"3+	c #8A40D5",
"4+	c #9A48EC",
"5+	c #9C49EF",
"6+	c #9B48EF",
"7+	c #30164A",
"8+	c #3E1C60",
"9+	c #492271",
"0+	c #532680",
"a+	c #5C2A8D",
"b+	c #632E99",
"c+	c #6A31A3",
"d+	c #7034AD",
"e+	c #7636B5",
"f+	c #7F3BC4",
"g+	c #873ED1",
"h+	c #8C41D8",
"i+	c #2D1445",
"j+	c #4F247B",
"k+	c #602C93",
"l+	c #6D32A7",
"m+	c #9444E5",
"n+	c #893FD2",
"o+	c #642E9A",
"p+	c #28123D",
"q+	c #2A1341",
"r+	c #361853",
"s+	c #542681",
"t+	c #833CCB",
"u+	c #843DCC",
"v+	c #612C95",
"w+	c #27123B",
"x+	c #3C1B5D",
"y+	c #5E2B91",
"z+	c #7F3AC4",
"A+	c #2B1443",
"B+	c #411E64",
"C+	c #4A2272",
"D+	c #52267E",
"E+	c #7E3AC1",
"F+	c #803BC6",
"G+	c #652F9C",
"H+	c #28133E",
"I+	c #301649",
"J+	c #441F69",
"K+	c #4C2375",
"L+	c #532681",
"M+	c #602C94",
"N+	c #7937BA",
"O+	c #7235B0",
"P+	c #582988",
"Q+	c #4D2377",
"R+	c #7335B1",
"S+	c #7134AE",
"T+	c #6B31A4",
"U+	c #2C1444",
"V+	c #3F1D60",
"W+	c #52257E",
"X+	c #26123B",
"Y+	c #3F1D61",
"Z+	c #4C2376",
"`+	c #5F2C92",
" @	c #552783",
".@	c #361953",
"+@	c #3E1C5F",
"@@	c #542782",
"#@	c #672F9F",
"$@	c #672FA0",
"%@	c #29133E",
"&@	c #341850",
"*@	c #3B1B5B",
"=@	c #421E65",
"-@	c #47216E",
";@	c #50257C",
">@	c #5A298A",
",@	c #59298A",
"'@	c #421E66",
")@	c #2B1442",
"!@	c #31164C",
"~@	c #381956",
"{@	c #3D1C5F",
"]@	c #431E66",
"^@	c #47206E",
"/@	c #4B2273",
"(@	c #562784",
"_@	c #47206D",
":@	c #291340",
"<@	c #3C1C5D",
"[@	c #401D63",
"}@	c #46206D",
"|@	c #482170",
"1@	c #4A2273",
"2@	c #2A1340",
"3@	c #30164B",
"4@	c #341851",
"5@	c #371956",
"6@	c #2B1342",
"7@	c #2E1547",
"8@	c #2E1548",
"9@	c #2D1545",
"                        . + @ # $ % & *                         ",
"                  = - * ; > , ' ) ! ~ { ] > ^                   ",
"              / ( _ : < [ } | 1 2 3 4 5 6 7 1 ,                 ",
"            8 9 0 a b , c d e 6 f g h i i h j 4 1 k             ",
"          / ( l m n o p q e 5 r s t u v w v x y r 2 o           ",
"        z A B C D E F ! G 3 r h t v H I J J I K L g M N         ",
"      O P Q R m S o } q T U g V W H J X Y Y Y Z H L `  ...      ",
"    +.@.#.$.%.&.b *.] =.7 -.;.t w I X >.,.'.,.Y ).H !.-.~.      ",
"    {.].^.B /.(._.:.) 1 <.f h L [.}.|.1.2.2.2.,.Y }.W 3.4.5.    ",
"  6.7.8.9.0.C D a.b.c.1 7 -.;.d.[.e.f.g.2.2.2.,.Y J [.y h.| i.  ",
"  j.k.l.m.n.C D _.*.] =.2 U 3.t o.p.q.r.s.g.2.t.Y J K !.f 1 u.  ",
"  v.w.x.m.0.C % b , y.q e 5 j y z.A.B.C.D.E.F.Y X }.[.!.G.H.*.  ",
"I.J.w.l.9.K.$ a L.o ' | G M.N.O.P.Q.R.S.T.U.|.).J V.W y f W.X.R ",
"Y.J.z P Z.`.0  +...+++) @+T 4 #+$+%+C.&+*+=+}.I H w L ;.U G X.-+",
";+>+,+'+)+!+R ~+D {+[ ' { ]+7 U ^+/+(+_+:+o.[.w W L i <+3 =.++%.",
"[+}+7.|+1+Q n.$ : 2+.+b.] 3+H.7 h.#+4+5+d.6+t t V s j U e | [ /.",
"[+7+8+9+0+a+b+c+d+e+< f+F g+q G 2 4 -.r g 3.3.3.g r h.4.h+y.E c+",
"I.i+{.w.j+A k+n.l+ +u._.o X.] 3+1 e <.6 U m+-.m+h.3 2 1 n+b.S o+",
"p+q+r+7./ s+a+. l C : .._.o t+y.! d ]+ .2 4.7 M T H.@+n+u+.+&.v+",
"w+[+7+x+w.'+#.y+o+c+* a .._.z+:.' ] ! 3+@+=.=.=.q | ] X.z+../.)+",
"  [+A+J.B+C+D+)+9 K._ * : u.< E+F+b.u+} ] g+) ] y.u+*.5.S m G+  ",
"  H+[+I+{.J+K+L+^.M+K.c+C  +(.N+b E z+[ *.:.:.*.[ N _...O+c+P+  ",
"  I.[+q+}+O w.Q+s+^.9 o+l # ~+R+e+..n b _.a.> _.< k (.S+T+M+K+  ",
"    [+[+U+r+V+w.Q+L+)+y+. n.c+$ ~+m a % D D D (.a & /.l v+W+    ",
"    X+[+[+6.J.Y+w.Z+D+#.a+k+b+n.R 0 $ C * * * /.# R K.`+ @      ",
"      p+[+[+6..@+@J+C+j+@@A 9.`+- o+0.+ #@$@#@0.b+M+Z.x.J+      ",
"        %@[+[+i+&@*@=@-@K+;@s+#.>@9.m.Q `+`+y+9.,@ @8 '@        ",
"          %@[+[+)@!@~@{@]@^@/@8 8.0+@@ @(@ @s+P Q+_@O           ",
"            p+[+[+:@i++.~@<@[@J+}@|@C+/@1@9+-@,+{@&@            ",
"              w+[+[+[+2@U+3@4@~@{.<@+@8+O *@5@!@6@              ",
"                  X+H+[+[+[+2@)@i+7@8@7@9@)@p+                  ",
"                        w+I.I.H+Y.;+p+I.                        "};
